<svg id="Layer_1" height="512" viewBox="0 0 512 512" width="512" xmlns="http://www.w3.org/2000/svg" data-name="Layer 1"><path d="m105.513 458.961a6 6 0 0 0 4.243-1.757l236.1-236.1 29.512-29.512a6 6 0 0 0 0-8.485l-29.508-29.519a6 6 0 0 0 -8.486 0l-29.511 29.512-236.1 236.1a6 6 0 0 0 0 8.485l29.507 29.515a6 6 0 0 0 4.243 1.761zm236.1-292.645 21.028 21.028-21.028 21.027-21.028-21.027zm-29.513 29.513 21.028 21.028-227.615 227.619-21.028-21.028z"/><path d="m431.514 288.086a41.015 41.015 0 0 1 -30.709-41.378 6 6 0 0 0 -11.8-1.747 41.014 41.014 0 0 1 -41.38 30.709 6 6 0 0 0 -1.746 11.8 41.017 41.017 0 0 1 30.709 41.38 6 6 0 0 0 5.12 6.15 6.143 6.143 0 0 0 .883.065 6 6 0 0 0 5.8-4.472 41 41 0 0 1 41.379-30.709 6 6 0 0 0 1.747-11.8zm-46 21.187a52.759 52.759 0 0 0 -18.314-24.673 52.764 52.764 0 0 0 24.677-18.314 52.757 52.757 0 0 0 18.313 24.677 52.761 52.761 0 0 0 -24.674 18.31z"/><path d="m432.6 70.513a29.253 29.253 0 0 1 -36.659-2.63 6 6 0 0 0 -9.015 7.808 29.256 29.256 0 0 1 -2.631 36.659 6 6 0 0 0 7.809 9.015 29.256 29.256 0 0 1 36.655 2.635 6 6 0 0 0 9.016-7.808 29.254 29.254 0 0 1 2.63-36.659 6 6 0 0 0 -7.808-9.015zm-11.556 35.462a41.027 41.027 0 0 0 -18.728-1.344 41.029 41.029 0 0 0 1.341-18.731 41.027 41.027 0 0 0 18.727 1.343 41.032 41.032 0 0 0 -1.343 18.732z"/><path d="m190.111 93.255a56.19 56.19 0 0 1 26.213 65.545 6 6 0 0 0 10.962 4.7 56.185 56.185 0 0 1 65.543-26.212 6 6 0 0 0 4.7-10.962 56.191 56.191 0 0 1 -26.212-65.545 6 6 0 0 0 -10.962-4.7 56.19 56.19 0 0 1 -65.545 26.212 6 6 0 0 0 -4.7 10.962zm46.524-1.43a68.6 68.6 0 0 0 20.3-12.624 68.251 68.251 0 0 0 17.476 43.7 68.266 68.266 0 0 0 -43.7 17.476 68.271 68.271 0 0 0 -17.476-43.7 68.6 68.6 0 0 0 23.4-4.852z"/></svg>