<svg id="Capa_1" enable-background="new 0 0 356.304 356.304" height="512" viewBox="0 0 356.304 356.304" width="512" xmlns="http://www.w3.org/2000/svg"><path d="m8.467 312.573 48.635-12.162-21.161 51.397 10.917 4.496 24.477-59.445 6.509-1.629 46.346 11.589 49.986 45.696c1.127 1.027 2.555 1.54 3.983 1.54s2.856-.513 3.983-1.546l49.986-45.696 46.345-11.583 6.509 1.629 24.477 59.445 10.917-4.496-21.161-51.397 48.635 12.162c2.425.614 4.969-.378 6.349-2.461 1.381-2.083 1.304-4.803-.195-6.804l-44.257-59.009c-15.82-21.096-40.008-34.532-65.742-37.187l18.783-6.833c.956-.348 1.806-.938 2.461-1.705l35.405-41.306c1.393-1.623 1.794-3.877 1.056-5.883l-41.305-112.118c-.543-1.469-1.646-2.661-3.068-3.322l-76.711-35.405c-1.57-.72-3.375-.72-4.945 0l-76.712 35.405c-1.422.655-2.526 1.847-3.068 3.322l-41.306 112.117c-.738 2.006-.336 4.255 1.056 5.883l35.405 41.306c.661.767 1.511 1.357 2.461 1.705l18.794 6.833c-25.917 2.738-49.992 16.163-65.753 37.187l-44.257 59.01c-1.499 2-1.581 4.727-.195 6.804 1.393 2.083 3.948 3.074 6.361 2.461zm169.692 27.586-30.13-27.545c2.714.277 5.334-1.245 6.225-3.9l23.904-71.719 23.904 71.719c.82 2.455 3.11 4.036 5.6 4.036.183 0 .372-.053.555-.071zm-14.699-127.724-44.31-60.927v-37.181l59.009-25.291 59.009 25.291v37.181l-44.31 60.927zm116.448 70.987c-.938-.236-1.924-.236-2.862 0l-65.512 16.375-2.266-6.792 69.135-21.273 49.567 16.522 6.621 8.834zm-45.691-65.087c25.864 0 50.571 12.351 66.09 33.045l15.218 20.293-35.187-11.731c-1.162-.384-2.425-.401-3.6-.041l-71.2 21.91-19.19-57.575h9.512c.673 0 1.357-.118 2.018-.354l18.546-6.745zm-167.343-66.119 39.265-106.576 72.02-33.234 72.02 33.24 39.264 106.576-32.142 37.5-45.307 16.475 35.848-49.296c.732-1.015 1.127-2.231 1.127-3.476v-34.042l9.477 4.06 4.65-10.846-82.612-35.405c-1.487-.637-3.163-.637-4.65 0l-82.612 35.405 4.65 10.846 9.477-4.06v34.042c0 1.245.395 2.461 1.127 3.47l35.848 49.296-45.307-16.475zm-10.863 99.164c15.519-20.694 40.226-33.045 66.302-33.051l19.013-.673 17.113 6.225c.661.236 1.339.33 2.018.33v.024h9.512l-19.19 57.575-71.2-21.91c-1.18-.366-2.437-.354-3.6.041l-35.187 11.731zm-27.663 36.881 49.567-16.522 69.135 21.273-2.266 6.792-65.512-16.375c-.938-.236-1.924-.236-2.862 0l-54.689 13.671z"/><path d="m200.034 181.201 5.901-5.901-8.344-8.344-4.172 4.172h-38.863v11.802h41.306c1.563 0 3.068-.619 4.172-1.729z"/><path d="m206.507 129.704c.384.077.773.118 1.157.118.631 0 1.263-.1 1.865-.301l17.703-5.901-3.735-11.194-16.216 5.405-27.964-5.594c-.767-.153-1.552-.153-2.319 0l-27.964 5.594-16.216-5.405-3.735 11.194 17.703 5.901c.974.325 2.006.384 3.027.189l28.348-5.665z"/><path d="m172.258 141.624h11.802v17.703h-11.802z"/></svg>